<?xml version="1.0" encoding="UTF-8"?>
<svg width="814px" height="163px" viewBox="0 0 814 163" version="1.1" xmlns="http://www.w3.org/2000/svg" xmlns:xlink="http://www.w3.org/1999/xlink">
    <!-- Generator: Sketch 52.4 (67378) - http://www.bohemiancoding.com/sketch -->
    <title>Group</title>
    <desc>Created with Sketch.</desc>
    <g id="Page-1" stroke="none" stroke-width="1" fill="none" fill-rule="evenodd">
        <g id="Artboard" transform="translate(-62.000000, -74.000000)">
            <g id="Group" transform="translate(62.000000, 74.000000)">
                <rect id="Rectangle" fill="#000000" x="2" y="0" width="85" height="85"></rect>
                <rect id="Rectangle-Copy" fill="#000000" x="147" y="0" width="85" height="85"></rect>
                <rect id="Rectangle-Copy-2" fill="#000000" x="292" y="0" width="85" height="85"></rect>
                <rect id="Rectangle-Copy-5" fill="#000000" x="437" y="0" width="85" height="85"></rect>
                <rect id="Rectangle-Copy-4" fill="#000000" x="582" y="0" width="85" height="85"></rect>
                <rect id="Rectangle-Copy-3" fill="#000000" x="727" y="0" width="85" height="85"></rect>
                <path d="M61.5185547,41.2011719 C67.6852522,43.2727968 70.7685547,47.1510132 70.7685547,52.8359375 C70.7685547,57.3164287 69.2269034,60.8333206 66.1435547,63.3867188 C64.553703,64.6875065 62.7229921,65.6149061 60.6513672,66.1689453 C58.5797422,66.7229845 55.9782058,67 52.8466797,67 L21.9892578,67 L21.9892578,17.7148438 L52.4853516,17.7148438 C55.665055,17.7148438 58.1943265,17.9557268 60.0732422,18.4375 C61.9521578,18.9192732 63.5901623,19.7382755 64.9873047,20.8945312 C67.7815895,23.1588655 69.1787109,26.4589627 69.1787109,30.7949219 C69.1787109,35.6126543 66.6253511,39.0813696 61.5185547,41.2011719 Z M31.6005859,37.2988281 L51.1123047,37.2988281 C54.0992988,37.2988281 56.2190693,36.889327 57.4716797,36.0703125 C58.8688221,35.106766 59.5673828,33.6132914 59.5673828,31.5898438 C59.5673828,29.5182188 58.9049545,28.0367883 57.5800781,27.1455078 C56.2552017,26.2542273 54.0992988,25.8085938 51.1123047,25.8085938 L31.6005859,25.8085938 L31.6005859,37.2988281 Z M31.6005859,58.90625 L50.4619141,58.90625 C53.9788587,58.90625 56.5322186,58.424484 58.1220703,57.4609375 C60.000986,56.4010364 60.9404297,54.6425904 60.9404297,52.1855469 C60.9404297,49.7285033 60.000986,47.9459691 58.1220703,46.8378906 C56.5322186,45.9225215 53.9788587,45.4648438 50.4619141,45.4648438 L31.6005859,45.4648438 L31.6005859,58.90625 Z" id="B" fill="#FFFFFF"></path>
                <polygon id="E" fill="#FFFFFF" points="178.298828 45.3925781 178.298828 58.90625 213.78125 58.90625 213.78125 67 168.6875 67 168.6875 17.7148438 212.914062 17.7148438 212.914062 25.8085938 178.298828 25.8085938 178.298828 37.515625 202.074219 37.515625 202.074219 45.3925781"></polygon>
                <polygon id="L" fill="#FFFFFF" points="325.25 58.90625 359.359375 58.90625 359.359375 67 315.638672 67 315.638672 17.7148438 325.25 17.7148438"></polygon>
                <polygon id="M" fill="#FFFFFF" points="478.524414 66.3496094 459.807617 32.9628906 459.807617 67 451.063477 67 451.063477 17.7148438 463.05957 17.7148438 479.463867 47.2714844 496.735352 17.7148438 507.936523 17.7148438 507.936523 67 498.325195 67 498.325195 32.9628906"></polygon>
                <path d="M635.592773,54.4257812 L612.467773,54.4257812 L606.180664,67 L597.364258,67 L620.200195,17.7148438 L628.727539,17.7148438 L652.141602,67 L641.879883,67 L635.592773,54.4257812 Z M632.991211,47.7050781 L624.174805,30.1445312 L615.213867,47.7050781 L632.991211,47.7050781 Z" id="A" fill="#FFFFFF"></path>
                <path d="M756.492188,46.9101562 L756.492188,67 L746.880859,67 L746.880859,17.7148438 L774.847656,17.7148438 C778.55731,17.7148438 781.496083,17.9316385 783.664062,18.3652344 C785.832042,18.7988303 787.71093,19.5455676 789.300781,20.6054688 C791.083342,21.8580792 792.432287,23.5683485 793.347656,25.7363281 C794.166671,27.8079531 794.576172,30.0240767 794.576172,32.3847656 C794.576172,40.4303788 789.975306,45.1275974 780.773438,46.4765625 L794.865234,67 L784.386719,67 L770.511719,46.9101562 L756.492188,46.9101562 Z M756.492188,38.7441406 L773.691406,38.7441406 C776.196627,38.7441406 777.967117,38.6718757 779.00293,38.5273438 C780.038742,38.3828118 781.038407,38.0937522 782.001953,37.6601562 C784.025401,36.6484324 785.037109,34.8658982 785.037109,32.3125 C785.037109,29.7109245 784.025401,27.9283902 782.001953,26.9648438 C781.086584,26.4830705 780.111008,26.1699226 779.075195,26.0253906 C778.039383,25.8808587 776.244804,25.8085938 773.691406,25.8085938 L756.492188,25.8085938 L756.492188,38.7441406 Z" id="R" fill="#FFFFFF"></path>
                <path d="M15.842002,131.256 L4.446002,131.256 L4.446002,141.112 L15.490002,141.112 L15.490002,144.544 L4.446002,144.544 L4.446002,161 L0.750002003,161 L0.750002003,127.824 L15.842002,127.824 L15.842002,131.256 Z M37.7660018,127.824 L37.7660018,161 L34.0700018,161 L34.0700018,127.824 L37.7660018,127.824 Z M56.9180016,161 L56.9180016,126.416 L82.7900016,153.52 L82.7900016,127.824 L86.4860016,127.824 L86.4860016,162.496 L60.6140016,135.436 L60.6140016,161 L56.9180016,161 Z M105.594001,161 L105.594001,127.824 L122.798001,127.824 L122.798001,131.256 L109.290001,131.256 L109.290001,141.112 L122.402001,141.112 L122.402001,144.544 L109.290001,144.544 L109.290001,157.568 L122.798001,157.568 L122.798001,161 L105.594001,161 Z M192.342001,130.508 L192.342001,135.084 C189.702001,132.356 186.050001,130.684 182.222001,130.684 C174.830001,130.684 168.846001,137.108 168.846001,144.412 C168.846001,151.716 174.874001,158.14 182.310001,158.14 C186.050001,158.14 189.702001,156.38 192.342001,153.74 L192.342001,158.316 C189.482001,160.384 185.962001,161.572 182.442001,161.572 C173.070001,161.572 165.150001,153.96 165.150001,144.544 C165.150001,135.04 172.938001,127.252 182.442001,127.252 C186.138001,127.252 189.394001,128.308 192.342001,130.508 Z M214.398001,127.824 L214.398001,147.58 C214.398001,150.044 214.310001,152.86 215.850001,154.972 C217.302001,156.996 220.118001,158.14 222.538001,158.14 C224.914001,158.14 227.510001,157.04 229.050001,155.192 C230.810001,153.08 230.678001,150.176 230.678001,147.58 L230.678001,127.824 L234.374001,127.824 L234.374001,148.592 C234.374001,152.2 234.110001,155.06 231.470001,157.788 C229.182001,160.252 225.882001,161.572 222.538001,161.572 C219.414001,161.572 216.202001,160.384 213.958001,158.184 C211.054001,155.412 210.702001,152.376 210.702001,148.592 L210.702001,127.824 L214.398001,127.824 Z M271.126001,132.4 L268.178001,134.292 C266.858001,132.004 265.274001,130.684 262.458001,130.684 C259.510001,130.684 256.958001,132.796 256.958001,135.832 C256.958001,138.692 259.906001,140.012 262.150001,141.024 L264.350001,141.992 C268.662001,143.884 272.314001,146.04 272.314001,151.32 C272.314001,157.128 267.650001,161.572 261.886001,161.572 C256.562001,161.572 252.602001,158.14 251.546001,152.992 L255.154001,151.98 C255.638001,155.368 258.234001,158.14 261.798001,158.14 C265.362001,158.14 268.618001,155.412 268.618001,151.672 C268.618001,147.8 265.582001,146.48 262.502001,145.072 L260.478001,144.192 C256.606001,142.432 253.262001,140.452 253.262001,135.7 C253.262001,130.552 257.618001,127.252 262.546001,127.252 C266.242001,127.252 269.366001,129.144 271.126001,132.4 Z M298.726,131.256 L298.726,161 L295.03,161 L295.03,131.256 L287.022,131.256 L287.022,127.824 L306.822,127.824 L306.822,131.256 L298.726,131.256 Z M338.426,127.252 C347.886,127.252 355.718,134.952 355.718,144.456 C355.718,154.004 347.886,161.572 338.426,161.572 C328.966,161.572 321.134,154.004 321.134,144.456 C321.134,134.952 328.966,127.252 338.426,127.252 Z M338.426,130.684 C330.814,130.684 324.83,136.888 324.83,144.412 C324.83,151.892 330.902,158.14 338.426,158.14 C345.95,158.14 352.022,151.892 352.022,144.412 C352.022,136.888 346.038,130.684 338.426,130.684 Z M370.514,161 L377.246,125.932 L389.302,153.784 L401.402,125.932 L408.134,161 L404.35,161 L400.082,138.56 L399.994,138.56 L389.302,162.364 L378.654,138.56 L378.566,138.56 L374.298,161 L370.514,161 Z M453.918,127.824 L453.918,147.58 C453.918,150.044 453.83,152.86 455.37,154.972 C456.822,156.996 459.638,158.14 462.058,158.14 C464.434,158.14 467.03,157.04 468.57,155.192 C470.33,153.08 470.198,150.176 470.198,147.58 L470.198,127.824 L473.894,127.824 L473.894,148.592 C473.894,152.2 473.63,155.06 470.99,157.788 C468.702,160.252 465.402,161.572 462.058,161.572 C458.934,161.572 455.722,160.384 453.478,158.184 C450.574,155.412 450.222,152.376 450.222,148.592 L450.222,127.824 L453.918,127.824 Z M496.346,146.48 L496.346,161 L492.65,161 L492.65,127.824 L498.106,127.824 C500.966,127.824 503.914,127.912 506.334,129.584 C508.798,131.3 510.074,134.204 510.074,137.152 C510.074,139.836 508.974,142.564 506.906,144.28 C504.662,146.128 501.802,146.48 499.03,146.48 L496.346,146.48 Z M496.346,131.256 L496.346,143.048 L498.81,143.048 C502.902,143.048 506.378,141.816 506.378,137.064 C506.378,131.652 502.022,131.256 497.71,131.256 L496.346,131.256 Z M530.853999,141.288 L547.837999,141.288 L547.837999,127.824 L551.533999,127.824 L551.533999,161 L547.837999,161 L547.837999,144.72 L530.853999,144.72 L530.853999,161 L527.157999,161 L527.157999,127.824 L530.853999,127.824 L530.853999,141.288 Z M586.217999,127.252 C595.677999,127.252 603.509999,134.952 603.509999,144.456 C603.509999,154.004 595.677999,161.572 586.217999,161.572 C576.757999,161.572 568.925999,154.004 568.925999,144.456 C568.925999,134.952 576.757999,127.252 586.217999,127.252 Z M586.217999,130.684 C578.605999,130.684 572.621999,136.888 572.621999,144.412 C572.621999,151.892 578.693999,158.14 586.217999,158.14 C593.741999,158.14 599.813999,151.892 599.813999,144.412 C599.813999,136.888 593.829999,130.684 586.217999,130.684 Z M624.421999,127.824 L624.421999,157.568 L633.573999,157.568 L633.573999,161 L620.725999,161 L620.725999,127.824 L624.421999,127.824 Z M667.421999,132.4 L664.473999,134.292 C663.153999,132.004 661.569999,130.684 658.753999,130.684 C655.805999,130.684 653.253999,132.796 653.253999,135.832 C653.253999,138.692 656.201999,140.012 658.445999,141.024 L660.645999,141.992 C664.957999,143.884 668.609999,146.04 668.609999,151.32 C668.609999,157.128 663.945999,161.572 658.181999,161.572 C652.857999,161.572 648.897999,158.14 647.841999,152.992 L651.449999,151.98 C651.933999,155.368 654.529999,158.14 658.093999,158.14 C661.657999,158.14 664.913999,155.412 664.913999,151.672 C664.913999,147.8 661.877999,146.48 658.797999,145.072 L656.773999,144.192 C652.901999,142.432 649.557999,140.452 649.557999,135.7 C649.557999,130.552 653.913999,127.252 658.841999,127.252 C662.537999,127.252 665.661999,129.144 667.421999,132.4 Z M695.021999,131.256 L695.021999,161 L691.325999,161 L691.325999,131.256 L683.317999,131.256 L683.317999,127.824 L703.117999,127.824 L703.117999,131.256 L695.021999,131.256 Z M719.101998,161 L719.101998,127.824 L736.305998,127.824 L736.305998,131.256 L722.797998,131.256 L722.797998,141.112 L735.909998,141.112 L735.909998,144.544 L722.797998,144.544 L722.797998,157.568 L736.305998,157.568 L736.305998,161 L719.101998,161 Z M758.493998,131.256 L758.493998,143.18 L759.637998,143.18 C763.817998,143.18 768.041998,142.388 768.041998,137.24 C768.041998,131.784 764.037998,131.256 759.593998,131.256 L758.493998,131.256 Z M758.493998,146.436 L758.493998,161 L754.797998,161 L754.797998,127.824 L759.593998,127.824 C765.885998,127.824 771.737998,129.496 771.737998,136.976 C771.737998,142.08 768.525998,145.688 763.421998,146.128 L773.981998,161 L769.449998,161 L759.417998,146.436 L758.493998,146.436 Z M798.721998,146.744 L787.853998,127.824 L792.121998,127.824 L800.569998,142.608 L809.017998,127.824 L813.285998,127.824 L802.417998,146.744 L802.417998,161 L798.721998,161 L798.721998,146.744 Z" id="fine-custom-upholste" fill="#282828"></path>
            </g>
        </g>
    </g>
</svg>