<?xml version="1.0" encoding="UTF-8"?>
<svg width="35px" height="35px" viewBox="0 0 35 35" version="1.1" xmlns="http://www.w3.org/2000/svg" xmlns:xlink="http://www.w3.org/1999/xlink">
    <!-- Generator: Sketch 40.2 (33826) - http://www.bohemiancoding.com/sketch -->
    <title>Shape</title>
    <desc>Created with Sketch.</desc>
    <defs></defs>
    <g id="Page-1" stroke="none" stroke-width="1" fill="none" fill-rule="evenodd">
        <g id="Desktop-HD-Copy-4" transform="translate(-109.000000, -235.000000)" fill="#FFFFFF">
            <g id="Group" transform="translate(109.000000, 235.000000)">
                <g id="dribbble">
                    <path d="M17.5,0 C7.83416667,0 0,7.835625 0,17.5 C0,27.164375 7.83416667,35 17.5,35 C27.1658333,35 35,27.164375 35,17.5 C35,7.835625 27.1658333,0 17.5,0 L17.5,0 Z M31.915625,16.6847917 C28.1604167,16.069375 24.7070833,16.0358333 21.5570833,16.5783333 C21.20125,15.7572917 20.8322917,14.9377083 20.4385417,14.1283333 C23.8072917,12.67 26.5125,10.6895833 28.529375,8.17541667 C30.498125,10.5 31.7333333,13.453125 31.915625,16.6847917 L31.915625,16.6847917 Z M26.3127083,6.06520833 C24.5554167,8.33145833 22.1302083,10.12375 19.0414583,11.431875 C17.5597917,8.71791667 15.8652083,6.07104167 13.9547917,3.50145833 C15.0908333,3.21416667 16.275,3.04354167 17.5,3.04354167 C20.8177083,3.04354167 23.87,4.17958333 26.3127083,6.06520833 L26.3127083,6.06520833 Z M10.976875,4.61708333 C12.9179167,7.1575 14.63875,9.77666667 16.135,12.464375 C12.59125,13.5070833 8.360625,14.0422917 3.47083333,14.0758333 C4.48,9.94145833 7.26395833,6.50270833 10.976875,4.61708333 L10.976875,4.61708333 Z M3.04354167,17.5 L3.0625,17.1266667 C8.675625,17.119375 13.5172917,16.4733333 17.5729167,15.19875 C17.9127083,15.8914583 18.2379167,16.5870833 18.55,17.2870833 C13.6208333,18.8285417 9.559375,21.9858333 6.391875,26.7370833 C4.30354167,24.2302083 3.04354167,21.0102083 3.04354167,17.5 L3.04354167,17.5 Z M8.6275,28.8895833 C11.4989583,24.38625 15.16375,21.455 19.7079167,20.1002083 C21.06125,23.629375 22.054375,27.260625 22.6872917,30.979375 C17.8033333,32.8620833 12.5475,31.950625 8.6275,28.8895833 L8.6275,28.8895833 Z M25.52375,29.5166667 C24.885,26.0852083 23.94875,22.7310417 22.72375,19.4585417 C25.4595833,19.0720833 28.4695833,19.1727083 31.7639583,19.744375 C31.1266667,23.8072917 28.8064583,27.3160417 25.52375,29.5166667 L25.52375,29.5166667 Z" id="Shape"></path>
                </g>
            </g>
        </g>
    </g>
</svg>