<?xml version="1.0" encoding="UTF-8"?>
<svg width="35px" height="35px" viewBox="0 0 35 35" version="1.1" xmlns="http://www.w3.org/2000/svg" xmlns:xlink="http://www.w3.org/1999/xlink">
    <!-- Generator: Sketch 40.2 (33826) - http://www.bohemiancoding.com/sketch -->
    <title>fb</title>
    <desc>Created with Sketch.</desc>
    <defs></defs>
    <g id="Page-1" stroke="none" stroke-width="1" fill="none" fill-rule="evenodd">
        <g id="Desktop-HD-Copy-4" transform="translate(-190.000000, -235.000000)" fill="#FFFFFF">
            <g id="Group" transform="translate(109.000000, 235.000000)">
                <g id="fb" transform="translate(81.000000, 0.000000)">
                    <path d="M17.5,2.91666667 C25.54125,2.91666667 32.0833333,9.45875 32.0833333,17.5 C32.0833333,25.54125 25.54125,32.0833333 17.5,32.0833333 C9.45875,32.0833333 2.91666667,25.54125 2.91666667,17.5 C2.91666667,9.45875 9.45875,2.91666667 17.5,2.91666667 L17.5,2.91666667 Z M17.5,0 C7.835625,0 0,7.835625 0,17.5 C0,27.164375 7.835625,35 17.5,35 C27.164375,35 35,27.164375 35,17.5 C35,7.835625 27.164375,0 17.5,0 L17.5,0 Z M14.5833333,14.5833333 L11.6666667,14.5833333 L11.6666667,17.5 L14.5833333,17.5 L14.5833333,26.25 L18.9583333,26.25 L18.9583333,17.5 L21.6125,17.5 L21.875,14.5833333 L18.9583333,14.5833333 L18.9583333,13.3685417 C18.9583333,12.6714583 19.0983333,12.3958333 19.7720833,12.3958333 L21.875,12.3958333 L21.875,8.75 L18.3691667,8.75 C15.7470833,8.75 14.5833333,9.905 14.5833333,12.1158333 L14.5833333,14.5833333 L14.5833333,14.5833333 Z" id="Shape"></path>
                </g>
            </g>
        </g>
    </g>
</svg>