<?xml version="1.0" encoding="UTF-8"?>
<svg width="35px" height="35px" viewBox="0 0 35 35" version="1.1" xmlns="http://www.w3.org/2000/svg" xmlns:xlink="http://www.w3.org/1999/xlink">
    <!-- Generator: Sketch 40.2 (33826) - http://www.bohemiancoding.com/sketch -->
    <title>Shape</title>
    <desc>Created with Sketch.</desc>
    <defs></defs>
    <g id="Page-1" stroke="none" stroke-width="1" fill="none" fill-rule="evenodd">
        <g id="Desktop-HD-Copy-4" transform="translate(-277.000000, -235.000000)" fill="#FFFFFF">
            <g id="Group" transform="translate(109.000000, 235.000000)">
                <g id="twitter" transform="translate(168.000000, 0.000000)">
                    <path d="M17.5,2.91666667 C25.54125,2.91666667 32.0833333,9.45875 32.0833333,17.5 C32.0833333,25.54125 25.54125,32.0833333 17.5,32.0833333 C9.45875,32.0833333 2.91666667,25.54125 2.91666667,17.5 C2.91666667,9.45875 9.45875,2.91666667 17.5,2.91666667 L17.5,2.91666667 Z M17.5,0 C7.835625,0 0,7.835625 0,17.5 C0,27.164375 7.835625,35 17.5,35 C27.164375,35 35,27.164375 35,17.5 C35,7.835625 27.164375,0 17.5,0 L17.5,0 Z M26.9791667,12.80125 C26.3360417,13.0870833 25.6433333,13.2795833 24.9170833,13.3670833 C25.659375,12.9222917 26.2266667,12.219375 26.4964583,11.3808333 C25.8022917,11.7920833 25.03375,12.0910417 24.215625,12.2514583 C23.5622917,11.5529167 22.6275,11.116875 21.5964583,11.116875 C19.2777083,11.116875 17.574375,13.2795833 18.0979167,15.5254167 C15.115625,15.3752083 12.46875,13.9460417 10.6983333,11.7745833 C9.75770833,13.3875 10.21125,15.4991667 11.8095833,16.568125 C11.221875,16.5491667 10.6691667,16.3872917 10.185,16.1189583 C10.145625,17.7814583 11.3385417,19.3375 13.0652083,19.6845833 C12.560625,19.8216667 12.0064583,19.85375 11.4435417,19.7458333 C11.9,21.1720833 13.2285417,22.2089583 14.7977083,22.238125 C13.2854167,23.4222917 11.3852083,23.9516667 9.47916667,23.7270833 C11.06875,24.7464583 12.954375,25.34 14.9814583,25.34 C21.6489583,25.34 25.414375,19.709375 25.186875,14.6591667 C25.8897917,14.1545833 26.4979167,13.5216667 26.9791667,12.80125 L26.9791667,12.80125 Z" id="Shape"></path>
                </g>
            </g>
        </g>
    </g>
</svg>